<svg width="20" height="20" viewBox="0 0 20 20" fill="none" xmlns="http://www.w3.org/2000/svg">
<path d="M4.16667 6.66683V12.6668C4.16667 14.5524 4.16667 15.4953 4.75245 16.081C5.33824 16.6668 6.28105 16.6668 8.16667 16.6668H11.8333C13.719 16.6668 14.6618 16.6668 15.2475 16.081C15.8333 15.4953 15.8333 14.5524 15.8333 12.6668V6.66683M4.16667 6.66683H15.8333M4.16667 6.66683H2.80303C2.707 6.66683 2.65898 6.66683 2.62127 6.65068C2.57402 6.63045 2.53638 6.59281 2.51615 6.54556C2.5 6.50785 2.5 6.45983 2.5 6.3638C2.5 5.40346 2.5 4.92329 2.66148 4.5462C2.8638 4.07373 3.24024 3.6973 3.7127 3.49498C4.08979 3.3335 4.56996 3.3335 5.5303 3.3335H14.4697C15.43 3.3335 15.9102 3.3335 16.2873 3.49498C16.7598 3.6973 17.1362 4.07373 17.3385 4.5462C17.5 4.92329 17.5 5.40346 17.5 6.3638C17.5 6.45983 17.5 6.50785 17.4839 6.54556C17.4636 6.59281 17.426 6.63045 17.3787 6.65068C17.341 6.66683 17.293 6.66683 17.197 6.66683H15.8333" stroke="#868686" stroke-width="2"/>
<path d="M8.3335 13.3335H11.6668" stroke="#868686" stroke-width="2" stroke-linecap="round"/>
</svg>
