<svg width="20" height="20" viewBox="0 0 20 20" fill="none" xmlns="http://www.w3.org/2000/svg">
<path fill-rule="evenodd" clip-rule="evenodd" d="M11.6546 1.74642C11.13 1.58601 10.5742 1.5 10 1.5C7.11839 1.5 4.69757 3.66673 4.37934 6.53075L4.16951 8.41926C4.07774 9.24514 3.80893 10.0415 3.38141 10.754L2.89971 11.5569L2.88588 11.5799C2.74641 11.8124 2.61982 12.0233 2.52679 12.2014C2.43346 12.3801 2.32244 12.6187 2.28457 12.8963C2.16295 13.7877 2.65153 14.6507 3.4785 15.005C3.73602 15.1154 3.99771 15.1429 4.19896 15.1548C4.39957 15.1667 4.64559 15.1667 4.91665 15.1667H4.91667H4.94355H15.0565H15.0834H15.0834C15.3545 15.1667 15.6005 15.1667 15.8011 15.1548C16.0023 15.1429 16.264 15.1154 16.5216 15.005C17.3485 14.6507 17.8371 13.7877 17.7155 12.8963C17.6776 12.6187 17.5666 12.3801 17.4733 12.2014C17.3802 12.0233 17.2536 11.8123 17.1142 11.5799L17.1003 11.5569L16.6186 10.754C16.3893 10.3718 16.2056 9.96543 16.0705 9.54332C15.7267 9.62399 15.3684 9.66667 15 9.66667C14.6572 9.66667 14.323 9.6297 14.0012 9.55954C14.1848 10.3411 14.4887 11.0914 14.9037 11.783L15.3853 12.5859C15.5431 12.8488 15.6383 13.0082 15.7005 13.1273C15.706 13.1379 15.7109 13.1475 15.7152 13.1561C15.7056 13.1569 15.6948 13.1576 15.6829 13.1583C15.5488 13.1663 15.3632 13.1667 15.0565 13.1667H4.94355C4.63686 13.1667 4.45126 13.1663 4.31715 13.1583C4.30524 13.1576 4.29449 13.1569 4.28483 13.1561C4.28917 13.1475 4.29406 13.1379 4.29958 13.1273C4.36177 13.0082 4.45691 12.8488 4.6147 12.5859L5.0964 11.783C5.6719 10.8239 6.03375 9.75186 6.15727 8.64013L6.36711 6.75161C6.57279 4.90046 8.13748 3.5 10 3.5C10.1919 3.5 10.3807 3.51487 10.5651 3.54357C10.7889 2.8617 11.1656 2.24914 11.6546 1.74642ZM14.3032 3.48554C13.7307 3.74937 13.3334 4.32828 13.3334 5C13.3334 5.92047 14.0795 6.66667 15 6.66667C15.2201 6.66667 15.4301 6.62402 15.6225 6.54655L15.6207 6.53075C15.4915 5.36796 15.0157 4.32011 14.3032 3.48554Z" fill="white"/>
<path d="M7.58519 14.7206C7.72762 15.5179 8.04149 16.2225 8.4781 16.7251C8.91471 17.2276 9.44966 17.5 10 17.5C10.5503 17.5 11.0853 17.2276 11.5219 16.7251C11.9585 16.2225 12.2724 15.5179 12.4148 14.7206" stroke="white" stroke-width="2" stroke-linecap="round"/>
<path d="M15.0005 2.8335C16.197 2.83367 17.1665 3.80398 17.1665 5.00049C17.1663 6.19685 16.1968 7.16633 15.0005 7.1665C13.804 7.1665 12.8337 6.19696 12.8335 5.00049C12.8335 3.80387 13.8039 2.8335 15.0005 2.8335Z" fill="white" stroke="white"/>
</svg>
