<svg width="19" height="20" viewBox="0 0 19 20" fill="none" xmlns="http://www.w3.org/2000/svg">
<path d="M10.4275 2.5H7.12501C5.63223 2.5 4.88584 2.5 4.42209 2.98816C3.95834 3.47631 3.95834 4.26198 3.95834 5.83333V14.1667C3.95834 15.738 3.95834 16.5237 4.42209 17.0118C4.88584 17.5 5.63223 17.5 7.12501 17.5H11.875C13.3678 17.5 14.1142 17.5 14.5779 17.0118C15.0417 16.5237 15.0417 15.738 15.0417 14.1667V7.35702C15.0417 7.0164 15.0417 6.84608 14.9814 6.69294C14.9212 6.5398 14.8067 6.41937 14.5779 6.17851L11.5471 2.98816C11.3183 2.7473 11.2039 2.62687 11.0584 2.56343C10.9129 2.5 10.7511 2.5 10.4275 2.5Z" stroke="white" stroke-width="2"/>
<path d="M10.2917 2.5V5.83333C10.2917 6.61901 10.2917 7.01184 10.5235 7.25592C10.7554 7.5 11.1286 7.5 11.875 7.5H15.0417" stroke="white" stroke-width="2"/>
</svg>
