<svg width="20" height="20" viewBox="0 0 20 20" fill="none" xmlns="http://www.w3.org/2000/svg">
<path d="M10.9763 2.5H7.50002C5.92867 2.5 5.143 2.5 4.65484 2.98816C4.16669 3.47631 4.16669 4.26198 4.16669 5.83333V14.1667C4.16669 15.738 4.16669 16.5237 4.65484 17.0118C5.143 17.5 5.92867 17.5 7.50002 17.5H12.5C14.0714 17.5 14.857 17.5 15.3452 17.0118C15.8334 16.5237 15.8334 15.738 15.8334 14.1667V7.35702C15.8334 7.0164 15.8334 6.84608 15.7699 6.69294C15.7065 6.5398 15.5861 6.41937 15.3452 6.17851L12.1548 2.98816C11.914 2.7473 11.7936 2.62687 11.6404 2.56343C11.4873 2.5 11.317 2.5 10.9763 2.5Z" stroke="#2A7EDF" stroke-width="2"/>
<path d="M7.5 10.833L12.5 10.833" stroke="#2A7EDF" stroke-width="2" stroke-linecap="round"/>
<path d="M7.5 14.167L10.8333 14.167" stroke="#2A7EDF" stroke-width="2" stroke-linecap="round"/>
<path d="M10.8333 2.5V5.83333C10.8333 6.61901 10.8333 7.01184 11.0774 7.25592C11.3215 7.5 11.7143 7.5 12.5 7.5H15.8333" stroke="#2A7EDF" stroke-width="2"/>
</svg>
