<svg width="20" height="22" viewBox="0 0 20 22" fill="none" xmlns="http://www.w3.org/2000/svg">
<path d="M5.8335 6.53777C5.8335 4.34662 5.8335 3.25105 6.53368 2.6523C7.23386 2.05355 8.30739 2.22225 10.4544 2.55965L12.4316 2.87034C14.8507 3.25048 16.0602 3.44056 16.7802 4.28249C17.5002 5.12443 17.5002 6.34882 17.5002 8.7976V13.2027C17.5002 15.6515 17.5002 16.8759 16.7802 17.7178C16.0602 18.5598 14.8507 18.7498 12.4316 19.13L10.3015 19.4647C8.30145 19.779 7.30142 19.9362 6.62261 19.4198C6.56195 19.3736 6.50399 19.3241 6.44899 19.2713C5.8335 18.6809 5.8335 17.6686 5.8335 15.644" stroke="#868686" stroke-width="2"/>
<path d="M13.3335 10.9998L14.1422 10.4117L14.57 10.9998L14.1422 11.588L13.3335 10.9998ZM3.3335 11.9998C2.78121 11.9998 2.3335 11.5521 2.3335 10.9998C2.3335 10.4476 2.78121 9.99984 3.3335 9.99984V11.9998ZM10.8089 5.82833L14.1422 10.4117L12.5248 11.588L9.19143 7.00468L10.8089 5.82833ZM14.1422 11.588L10.8089 16.1713L9.19143 14.995L12.5248 10.4117L14.1422 11.588ZM13.3335 11.9998H3.3335V9.99984H13.3335V11.9998Z" fill="#868686"/>
</svg>
